HIERARCHY
ROOT Hips
{
	OFFSET -3.958830 18.904000 13.208200
	CHANNELS 6 Xposition Yposition Zposition Zrotation Yrotation Xrotation 
	JOINT LHipJoint
	{
		OFFSET 0.000000 0.000000 0.000000
		CHANNELS 3 Zrotation Yrotation Xrotation
		JOINT LeftUpLeg
		{
			OFFSET 1.800000 -1.400000 0.085000
			CHANNELS 3 Zrotation Yrotation Xrotation
			JOINT LeftLeg
			{
				OFFSET 2.215000 -6.000000 0.000000
				CHANNELS 3 Zrotation Yrotation Xrotation
				JOINT LeftFoot
				{
					OFFSET 2.500000 -6.900000 0.000000
					CHANNELS 3 Zrotation Yrotation Xrotation
					JOINT LeftToeBase
					{
						OFFSET 0.200000 -0.500000 1.950000
						CHANNELS 3 Zrotation Yrotation Xrotation
						End Site
						{
							OFFSET 0.000000 0.000000 0.000000
						}
					}
				}
			}
		}
	}
	JOINT RHipJoint
	{
		OFFSET 0.000000 0.000000 0.000000
		CHANNELS 3 Zrotation Yrotation Xrotation
		JOINT RightUpLeg
		{
			OFFSET -1.800000 -1.400000 0.085000
			CHANNELS 3 Zrotation Yrotation Xrotation
			JOINT RightLeg
			{
				OFFSET -2.215000 -6.000000 0.000000
				CHANNELS 3 Zrotation Yrotation Xrotation
				JOINT RightFoot
				{
					OFFSET -2.500000 -6.900000 0.000000
					CHANNELS 3 Zrotation Yrotation Xrotation
					JOINT RightToeBase
					{
						OFFSET -0.200000 -0.500000 1.950000
						CHANNELS 3 Zrotation Yrotation Xrotation
						End Site
						{
							OFFSET 0.000000 0.000000 0.000000
						}
					}
				}
			}
		}
	}
	JOINT LowerBack
	{
		OFFSET 0.000000 0.000000 0.000000
		CHANNELS 3 Zrotation Yrotation Xrotation
		JOINT Spine
		{
			OFFSET -0.087000 1.940000 -0.288900
			CHANNELS 3 Zrotation Yrotation Xrotation
			JOINT Spine1
			{
				OFFSET 0.000000 1.950000 0.060000
				CHANNELS 3 Zrotation Yrotation Xrotation
				JOINT Neck
				{
					OFFSET 0.000000 0.000000 0.000000
					CHANNELS 3 Zrotation Yrotation Xrotation
					JOINT Neck1
					{
						OFFSET 0.000000 1.600000 0.340000
						CHANNELS 3 Zrotation Yrotation Xrotation
						JOINT Head
						{
							OFFSET 0.000000 1.667000 -0.240000
							CHANNELS 3 Zrotation Yrotation Xrotation
							End Site
							{
								OFFSET 0.000000 0.000000 0.000000
							}
						}
					}
				}
				JOINT LeftShoulder
				{
					OFFSET 0.000000 0.000000 0.000000
					CHANNELS 3 Zrotation Yrotation Xrotation
					JOINT LeftArm
					{
						OFFSET 2.700000 1.550000 -0.730000
						CHANNELS 3 Zrotation Yrotation Xrotation
						JOINT LeftForeArm
						{
							OFFSET 5.450000 0.000000 0.000000
							CHANNELS 3 Zrotation Yrotation Xrotation
							JOINT LeftHand
							{
								OFFSET 3.450000 0.000000 0.000000
								CHANNELS 3 Zrotation Yrotation Xrotation
								JOINT LeftHandIndex1
								{
									OFFSET 0.750000 0.000000 0.000000
									CHANNELS 3 Zrotation Yrotation Xrotation
									End Site
									{
										OFFSET 0.000000 0.000000 0.000000
									}
								}
							}
						}
					}
				}
				JOINT RightShoulder
				{
					OFFSET 0.000000 0.000000 0.000000
					CHANNELS 3 Zrotation Yrotation Xrotation
					JOINT RightArm
					{
						OFFSET -2.700000 1.550000 -0.730000
						CHANNELS 3 Zrotation Yrotation Xrotation
						JOINT RightForeArm
						{
							OFFSET -5.450000 0.000000 0.000000
							CHANNELS 3 Zrotation Yrotation Xrotation
							JOINT RightHand
							{
								OFFSET -3.450000 0.000000 0.000000
								CHANNELS 3 Zrotation Yrotation Xrotation
								JOINT RightHandIndex1
								{
									OFFSET -0.750000 0.000000 0.000000
									CHANNELS 3 Zrotation Yrotation Xrotation
									End Site
									{
										OFFSET 0.000000 0.000000 0.000000
									}
								}
							}
						}
					}
				}
			}
		}
	}
}
MOTION
Frames: 12
Frame Time: 0.016667
-1.277860 17.631330 -0.303680 -5.177962 -3.515333 -10.435270 -14.175789 12.485778 1.884015 7.683347 0.153886 -7.437950 2.745862 3.288179 11.400983 -0.706150 3.028693 3.513363 0.765970 0.807860 0.407920 19.221682 -12.276895 3.547611 -4.060884 -2.026560 3.078041 7.837682 -5.097297 3.504328 -0.755775 -4.830500 2.698100 0.594620 0.094280 0.104890 -6.279270 1.825903 -7.647843 20.482996 2.264589 13.615238 -6.926910 3.796144 36.803136 2.613692 -6.033843 -19.943297 -12.208380 2.886721 42.888183 5.572700 -3.204430 -17.089460 -14.298570 -44.547154 11.339591 -18.165398 -30.687650 -18.294862 73.740166 -3.283916 -15.596603 -3.778322 3.464773 0.309560 -0.003670 0.106150 0.209980 11.970567 49.714476 16.214560 11.849759 28.199968 -34.933747 -74.898846 20.000118 -24.338108 2.631049 -1.876240 -0.049750 0.298020 -0.214970 -0.016020 
-1.301000 17.630920 -0.305080 -4.979782 -3.930359 -10.678447 -14.190193 12.460210 1.851470 7.305733 0.164648 -7.166177 3.167257 3.210735 11.695864 -0.738501 3.040946 3.504790 0.792450 0.847210 0.412220 19.221822 -12.291789 3.530274 -4.329478 -2.035980 3.261695 7.878639 -5.121774 3.518785 -0.759783 -4.889830 2.675770 0.636840 0.102240 0.105020 -6.266681 1.917100 -7.569792 20.074849 2.633470 13.350071 -6.404610 4.026429 37.045456 2.421566 -5.883709 -19.039273 -11.598494 2.707289 42.297027 5.405450 -3.152820 -17.461650 -13.552811 -44.727346 10.907742 -18.241722 -31.586291 -18.018357 76.002639 -3.200652 -16.148991 -3.770685 3.455065 0.297850 0.011380 0.096500 0.218710 11.617754 49.975049 15.389557 11.826372 28.131308 -34.626931 -77.967938 20.037375 -25.403513 2.554440 -1.836623 -0.056030 0.309730 -0.218250 -0.017400 
-1.328360 17.635400 -0.313070 -5.061356 -3.927175 -11.273086 -14.199704 12.416119 1.804760 7.055998 0.162930 -6.882126 3.545281 3.149138 12.113456 -0.779823 3.065082 3.492291 0.830470 0.891850 0.446150 19.233240 -12.295787 3.534351 -4.447242 -2.136903 3.904287 8.132748 -5.193311 3.323534 -0.797810 -4.972583 2.643682 0.679340 0.095680 0.098130 -6.276625 2.025517 -7.484669 20.057488 2.590260 13.436628 -6.355348 3.946910 37.482623 2.439000 -5.602033 -18.141129 -10.834638 2.809992 41.828947 5.481980 -2.712170 -18.852330 -12.496694 -45.128664 10.636005 -18.074470 -31.832434 -18.507867 80.861157 -4.274832 -18.300450 -3.753758 3.387430 0.317810 0.006860 0.108020 0.221620 10.570278 50.174999 14.472218 12.073425 28.001697 -34.604481 -82.556090 20.841502 -27.813048 2.502747 -1.761024 -0.070590 0.340070 -0.227500 -0.032070 
-1.362160 17.640150 -0.318170 -5.235767 -4.240912 -11.923117 -14.200001 12.337568 1.755274 6.908598 0.180623 -6.502727 3.567731 3.182582 12.547670 -0.820946 3.123607 3.466276 0.841930 0.909800 0.465480 19.256031 -12.316260 3.541616 -4.594533 -2.230356 4.591809 8.701674 -5.341110 3.269089 -0.825816 -5.097787 2.591152 0.711590 0.097300 0.090820 -6.315265 2.219024 -7.391045 20.218152 2.650750 13.356556 -6.361408 3.965006 38.265319 2.571891 -5.257628 -17.474202 -9.834204 2.869510 41.074730 5.013740 -2.167150 -19.529930 -11.034338 -45.223851 10.412467 -17.822446 -31.449922 -18.989488 85.785146 -6.178808 -21.436296 -3.768346 3.313043 0.323040 0.016980 0.102060 0.208650 9.013242 50.103665 14.004923 12.516327 27.573075 -35.044267 -87.636228 21.710834 -31.018699 2.477519 -1.702013 -0.091800 0.361770 -0.218190 -0.049980 
-1.394250 17.644140 -0.330240 -4.984902 -4.496153 -12.659607 -14.271892 12.401686 1.788832 6.221961 0.177072 -6.207039 3.706214 3.197874 13.085813 -0.807896 3.192373 3.452924 0.835690 0.898290 0.464640 19.180048 -12.257712 3.529618 -5.124171 -2.223285 5.197767 9.393438 -5.557914 3.666736 -0.833206 -5.213016 2.558908 0.709870 0.123890 0.106790 -6.106200 2.026874 -7.354866 19.056897 2.769276 13.890533 -5.587281 4.094630 38.640515 2.470815 -4.838017 -17.021678 -8.867822 2.847669 40.348552 4.704830 -1.779460 -19.077160 -9.793613 -45.414755 10.350426 -17.149256 -30.885751 -19.414508 90.718777 -7.294035 -24.237489 -3.800305 3.272980 0.308900 0.044470 0.090440 0.215730 7.895541 50.375581 13.600423 12.263719 26.295695 -35.134593 -92.335548 22.894587 -34.214956 2.489574 -1.652773 -0.096530 0.363060 -0.215550 -0.048080 
-1.432010 17.640030 -0.339150 -4.904354 -5.317050 -13.254643 -14.306129 12.404218 1.786616 5.778481 0.226992 -5.625647 3.819849 3.242891 13.623594 -0.783508 3.266349 3.441675 0.838960 0.904580 0.458590 19.152243 -12.256431 3.507493 -5.435717 -2.230898 5.643689 9.767935 -5.734620 4.183230 -0.841374 -5.314660 2.533660 0.718330 0.145700 0.111550 -6.020164 2.032578 -7.270063 18.802530 3.158604 14.188454 -4.868414 4.342255 38.894572 2.114999 -4.600284 -16.367803 -8.321911 2.677790 39.395459 4.630350 -1.685820 -18.612590 -7.993318 -45.215771 9.898485 -16.176870 -31.051714 -19.146897 93.833703 -6.975065 -25.265814 -3.809651 3.276975 0.286630 0.065120 0.076710 0.233380 6.664669 50.144744 13.140950 11.742362 24.790833 -34.051922 -97.213405 22.920559 -37.211954 2.485151 -1.656156 -0.097740 0.364490 -0.224750 -0.039790 
-1.464540 17.636090 -0.353960 -5.041691 -5.926377 -14.053171 -14.336190 12.422392 1.785874 5.445242 0.282710 -4.961612 4.111743 3.265562 14.291158 -0.796799 3.357317 3.398303 0.834100 0.895030 0.461850 19.125358 -12.249115 3.510389 -5.424482 -2.316536 6.391416 9.925065 -5.887902 4.493137 -0.854754 -5.402149 2.503801 0.723500 0.137420 0.108240 -5.937454 2.004241 -7.214835 18.757778 3.156089 15.015602 -4.548655 4.302491 39.181535 2.055577 -4.543316 -15.860905 -8.091104 2.866774 38.406973 4.453170 -1.244310 -19.220850 -6.445880 -44.951174 9.726008 -14.732297 -30.082014 -19.354294 97.270137 -7.168513 -26.895843 -3.832153 3.255632 0.301600 0.066570 0.071340 0.217900 5.193299 49.950190 12.514917 10.782500 23.332681 -32.901599 -101.896919 22.448420 -40.142660 2.465295 -1.654999 -0.113480 0.363400 -0.210780 -0.059190 
-1.495920 17.640170 -0.357940 -5.114285 -7.102636 -14.962916 -14.354787 12.424302 1.806708 5.074392 0.388103 -3.732267 4.196623 3.372339 14.918417 -0.765996 3.487296 3.347690 0.817000 0.860110 0.465600 19.102459 -12.256258 3.532163 -5.650413 -2.369330 7.296424 10.322094 -6.087855 4.693589 -0.880131 -5.516286 2.459704 0.698050 0.121960 0.118440 -5.877908 2.024834 -7.197412 18.833414 3.243748 16.014774 -4.557931 4.430647 39.414750 2.365934 -4.761557 -15.669671 -8.361068 3.146873 37.727329 4.192350 -0.854010 -19.506160 -6.127527 -44.686099 9.984282 -12.558020 -27.811192 -19.693339 101.068326 -8.463865 -29.435666 -3.862925 3.230612 0.319480 0.058930 0.074250 0.199080 4.328259 50.104990 11.875163 9.008251 21.514831 -31.984136 -105.344855 22.584271 -42.178341 2.501483 -1.646319 -0.115010 0.339750 -0.198240 -0.074460 
-1.517530 17.657320 -0.372260 -5.081653 -8.210431 -15.932928 -14.388455 12.453295 1.865873 4.589517 0.496340 -2.501611 3.961552 3.574064 15.521358 -0.712365 3.628284 3.297626 0.791600 0.820200 0.459840 19.058053 -12.225718 3.549493 -6.048737 -2.383567 8.164760 10.751887 -6.273728 4.823568 -0.902010 -5.606839 2.435272 0.660980 0.107970 0.120120 -5.764509 1.921162 -7.208476 18.822686 3.197533 17.490125 -4.516932 4.487634 39.434690 2.549526 -5.225427 -15.567592 -9.197047 3.310655 36.914294 4.213310 -0.743470 -20.110930 -5.992996 -44.092539 10.204186 -10.581875 -25.559368 -19.963582 104.519242 -9.714336 -32.074774 -3.881439 3.199492 0.339590 0.042940 0.080700 0.183760 3.788246 50.033424 11.443478 6.938345 19.423401 -30.940540 -108.480466 22.863049 -44.396865 2.547547 -1.652317 -0.114200 0.324840 -0.186960 -0.082210 
-1.543760 17.660090 -0.381770 -5.176002 -9.125051 -16.676074 -14.424000 12.473163 1.894605 4.215535 0.579112 -1.673808 3.648373 3.832541 16.631995 -0.653097 3.815891 3.244775 0.753130 0.768860 0.430030 19.020163 -12.192459 3.557292 -6.287654 -2.389662 8.879033 11.192494 -6.454660 4.993084 -0.912956 -5.717568 2.407481 0.623260 0.128790 0.136830 -5.663440 1.842730 -7.178171 18.877832 3.098410 18.425872 -4.431196 4.439059 39.320967 2.679519 -5.537964 -15.327394 -9.598474 3.278402 35.617682 3.630980 -0.687720 -19.591550 -4.585340 -42.600459 10.266357 -9.431923 -23.959400 -19.618812 107.858667 -9.976048 -34.221536 -3.898655 3.215105 0.333250 0.059350 0.067890 0.185650 2.108670 48.951926 11.211038 5.572325 18.257644 -29.335011 -111.210380 22.143215 -46.406098 2.542653 -1.720659 -0.116050 0.308260 -0.171710 -0.076410 
-1.568450 17.662700 -0.394340 -5.136839 -9.746875 -17.548278 -14.472737 12.522042 1.955420 3.603973 0.658525 -0.784501 3.543089 4.039832 17.609542 -0.574920 3.974154 3.189670 0.705460 0.709510 0.393850 18.965066 -12.121541 3.570510 -6.526653 -2.403109 9.778114 11.645891 -6.624710 5.095751 -0.918734 -5.820574 2.376951 0.575350 0.126490 0.138640 -5.513011 1.636722 -7.186403 18.673845 2.853390 19.854730 -4.393991 4.343927 38.983577 2.686727 -6.041128 -15.248071 -10.399988 3.155423 34.208255 3.494950 -0.846620 -19.105090 -3.586433 -40.994279 10.342288 -7.600805 -21.446525 -19.420171 110.627242 -10.971369 -36.717239 -3.909020 3.240400 0.323560 0.055040 0.053440 0.174040 0.986408 47.891503 11.128805 3.587082 16.553917 -27.826705 -113.714673 21.992990 -48.567166 2.567157 -1.792676 -0.111070 0.273800 -0.154670 -0.071880 
-1.588470 17.651660 -0.406470 -5.143685 -10.585151 -18.426303 -14.580474 12.672324 2.031657 3.115184 0.742494 -0.095752 3.546147 4.260268 18.763790 -0.494790 4.183550 3.119040 0.641820 0.624100 0.359280 18.844622 -11.969400 3.576859 -6.509596 -2.430419 10.743229 11.891992 -6.762041 5.194862 -0.910164 -5.892001 2.361537 0.511180 0.139860 0.155650 -5.177230 1.147996 -7.192775 17.796887 2.708706 21.491696 -3.729734 4.263393 38.361952 2.854923 -6.471160 -15.122671 -10.996445 3.157201 32.563317 2.804300 -0.633330 -18.415640 -2.407630 -38.771898 10.473477 -6.608203 -19.128972 -18.818357 113.690566 -11.846117 -39.645098 -3.929817 3.251902 0.315280 0.069530 0.034600 0.153570 -0.723668 46.332360 10.989082 1.333934 14.896826 -26.194314 -115.486638 21.914419 -50.389704 2.566798 -1.866200 -0.110050 0.239740 -0.124320 -0.072020 
